<svg width="36" height="36" viewBox="0 0 36 36" fill="none" xmlns="http://www.w3.org/2000/svg">
<path d="M29.1155 19.5C28.7855 19.5 28.4405 19.395 28.1105 19.32C27.4428 19.1707 26.7862 18.9752 26.1455 18.735C25.4496 18.4818 24.6847 18.495 23.998 18.7719C23.3112 19.0488 22.7511 19.57 22.4255 20.235L22.0955 20.925C20.6387 20.0988 19.2929 19.0907 18.0905 17.925C16.9248 16.7226 15.9167 15.3768 15.0905 13.92L15.7805 13.605C16.4456 13.2794 16.9667 12.7193 17.2436 12.0325C17.5205 11.3458 17.5337 10.5809 17.2805 9.885C17.0423 9.23855 16.8469 8.57712 16.6955 7.905C16.6205 7.575 16.5605 7.23 16.5155 6.9C16.3333 5.84343 15.7799 4.88661 14.9549 4.20186C14.1299 3.5171 13.0875 3.14941 12.0155 3.165H7.5005C6.86637 3.16417 6.23923 3.29737 5.66018 3.55588C5.08113 3.81438 4.56325 4.19235 4.1405 4.665C3.70898 5.15048 3.38767 5.72363 3.19866 6.34505C3.00964 6.96648 2.95739 7.62147 3.0455 8.265C3.86088 14.5082 6.71332 20.308 11.1605 24.765C15.6175 29.2122 21.4173 32.0646 27.6605 32.88C27.8552 32.8949 28.0508 32.8949 28.2455 32.88C29.3516 32.8816 30.4196 32.4758 31.2455 31.74C31.7182 31.3172 32.0961 30.7994 32.3546 30.2203C32.6131 29.6413 32.7463 29.0141 32.7455 28.38V23.88C32.7374 22.8436 32.3718 21.8417 31.7104 21.0436C31.049 20.2456 30.1324 19.7004 29.1155 19.5ZM29.8505 28.5C29.85 28.7093 29.8057 28.9162 29.7205 29.1074C29.6352 29.2986 29.5109 29.4698 29.3555 29.61C29.1911 29.7598 28.9955 29.8711 28.7827 29.936C28.57 30.0008 28.3455 30.0176 28.1255 29.985C22.5279 29.2539 17.3259 26.703 13.3205 22.725C9.31171 18.7162 6.73855 13.4961 6.0005 7.875C5.96792 7.655 5.98466 7.43051 6.04951 7.21778C6.11437 7.00505 6.22572 6.8094 6.3755 6.645C6.51743 6.48773 6.69107 6.3623 6.88497 6.27698C7.07888 6.19167 7.28866 6.14839 7.5005 6.15H12.0005C12.3472 6.14153 12.6862 6.25348 12.9597 6.4668C13.2332 6.68012 13.4243 6.98163 13.5005 7.32C13.5005 7.725 13.6355 8.145 13.7255 8.55C13.8989 9.3358 14.1295 10.1079 14.4155 10.86L12.3155 11.85C11.9545 12.0157 11.674 12.3178 11.5355 12.69C11.3855 13.0552 11.3855 13.4648 11.5355 13.83C13.6943 18.4541 17.4114 22.1712 22.0355 24.33C22.4007 24.48 22.8103 24.48 23.1755 24.33C23.5477 24.1915 23.8498 23.911 24.0155 23.55L24.9605 21.45C25.7344 21.7322 26.5261 21.9627 27.3305 22.14C27.7205 22.23 28.1405 22.305 28.5455 22.365C28.8839 22.4412 29.1854 22.6323 29.3987 22.9058C29.612 23.1793 29.724 23.5183 29.7155 23.865L29.8505 28.5ZM21.0005 3C20.6555 3 20.2955 3 19.9505 3C19.5527 3.03382 19.1846 3.22428 18.9272 3.5295C18.6698 3.83471 18.5442 4.22968 18.578 4.6275C18.6118 5.02533 18.8023 5.39342 19.1075 5.65082C19.4127 5.90821 19.8077 6.03382 20.2055 6H21.0005C23.3874 6 25.6766 6.94821 27.3645 8.63604C29.0523 10.3239 30.0005 12.6131 30.0005 15C30.0005 15.27 30.0005 15.525 30.0005 15.795C29.9672 16.1907 30.0923 16.5835 30.3481 16.8872C30.604 17.1908 30.9699 17.3807 31.3655 17.415H31.4855C31.861 17.4165 32.2234 17.2772 32.5012 17.0244C32.7789 16.7717 32.9517 16.424 32.9855 16.05C32.9855 15.705 32.9855 15.345 32.9855 15C32.9855 11.82 31.7233 8.77002 29.4761 6.52002C27.2289 4.27001 24.1805 3.00398 21.0005 3ZM24.0005 15C24.0005 15.3978 24.1585 15.7794 24.4398 16.0607C24.7211 16.342 25.1027 16.5 25.5005 16.5C25.8983 16.5 26.2799 16.342 26.5612 16.0607C26.8425 15.7794 27.0005 15.3978 27.0005 15C27.0005 13.4087 26.3684 11.8826 25.2431 10.7574C24.1179 9.63214 22.5918 9 21.0005 9C20.6027 9 20.2211 9.15804 19.9398 9.43934C19.6585 9.72065 19.5005 10.1022 19.5005 10.5C19.5005 10.8978 19.6585 11.2794 19.9398 11.5607C20.2211 11.842 20.6027 12 21.0005 12C21.7962 12 22.5592 12.3161 23.1218 12.8787C23.6844 13.4413 24.0005 14.2044 24.0005 15Z" fill="white"/>
</svg>
