<svg width="36" height="29" viewBox="0 0 36 29" fill="none" xmlns="http://www.w3.org/2000/svg">
<path d="M3.23 28.5C2.31 28.5 1.542 28.1865 0.926 27.5595C0.308667 26.9311 0 26.1488 0 25.2123V3.28768C0 2.35125 0.308667 1.56954 0.926 0.942535C1.542 0.314178 2.31 0 3.23 0H32.77C33.69 0 34.458 0.314178 35.074 0.942535C35.6913 1.56954 36 2.35125 36 3.28768V25.2123C36 26.1488 35.692 26.9305 35.076 27.5575C34.4587 28.1858 33.69 28.5 32.77 28.5H3.23ZM18 14.4841L2 3.83732V25.2123C2 25.5774 2.11533 25.8773 2.346 26.1121C2.57667 26.3469 2.87133 26.4643 3.23 26.4643H32.77C33.1287 26.4643 33.4233 26.3469 33.654 26.1121C33.8847 25.8773 34 25.5774 34 25.2123V3.83732L18 14.4841ZM18 12.2143L33.384 2.03571H2.616L18 12.2143ZM2 3.83732V2.03571V25.2123C2 25.5774 2.11533 25.8773 2.346 26.1121C2.57667 26.3469 2.87133 26.4643 3.23 26.4643H2V3.83732Z" fill="white"/>
</svg>
