<svg width="30" height="30" viewBox="0 0 30 30" fill="none" xmlns="http://www.w3.org/2000/svg">
<path d="M27.5806 8.73386H27.0968V9.70161H27.5806C27.7742 9.70161 27.9194 9.75001 28.0645 9.79836L15 20.6855L1.98389 9.75001C2.12905 9.70161 2.2742 9.65326 2.41936 9.65326H8.70969V8.68552H2.41936C1.06449 8.68546 0 9.75001 0 11.1048V25.621C0 26.9758 1.06449 28.0403 2.41936 28.0403H27.5806C28.9355 28.0403 30 26.9758 30 25.621V11.1048C30 9.79836 28.9355 8.73386 27.5806 8.73386ZM0.967744 25.6694V11.1532C0.967744 10.8629 1.06449 10.6209 1.20971 10.379L9.82259 17.5887L1.1129 26.2984C1.01615 26.1048 0.967744 25.9113 0.967744 25.6694ZM27.5806 27.1209H2.41936C2.17745 27.1209 1.98389 27.0725 1.79033 26.9758L10.5484 18.2177L15 21.9436L19.4516 18.2177L28.2096 26.9758C28.0161 27.0726 27.8226 27.1209 27.5806 27.1209ZM29.0323 25.6694C29.0323 25.9113 28.9839 26.1048 28.8871 26.2984L20.2258 17.5887L28.8387 10.4274C28.9839 10.621 29.0323 10.9113 29.0323 11.1532V25.6694Z" fill="#FFD500"/>
<path d="M15.4839 24.2168H14.5161V25.1845H15.4839V24.2168Z" fill="#FFD500"/>
<path d="M13.5483 24.2168H12.5806V25.1845H13.5483V24.2168Z" fill="#FFD500"/>
<path d="M17.4194 24.2168H16.4517V25.1845H17.4194V24.2168Z" fill="#FFD500"/>
<path d="M23.2743 1.95898H12.6291C10.742 1.95898 9.24203 3.45901 9.24203 5.34609V8.24932C9.19362 9.99125 10.5001 11.3945 12.1453 11.6364L12.7743 15.0719L16.2098 11.6364H23.2743C25.1614 11.6364 26.6614 10.1364 26.6614 8.24932V5.34609C26.6614 3.45901 25.1614 1.95898 23.2743 1.95898ZM25.6453 8.24932C25.6453 9.60418 24.5808 10.6687 23.2259 10.6687H15.7743L13.4034 13.0396L12.9679 10.6687H12.5808C11.2743 10.6687 10.2098 9.55578 10.2098 8.24932V5.34609H10.1614C10.1614 3.99122 11.2259 2.92673 12.5808 2.92673H23.226C24.5808 2.92673 25.6453 3.99122 25.6453 5.34609L25.6453 8.24932Z" fill="#FFD500"/>
<path d="M22.8872 4.86328H12.8711V5.83102H22.8872V4.86328Z" fill="#FFD500"/>
<path d="M18.3872 7.76562H17.4194V8.73337H18.3872V7.76562Z" fill="#FFD500"/>
<path d="M16.4516 7.76562H15.4839V8.73337H16.4516V7.76562Z" fill="#FFD500"/>
<path d="M20.3227 7.76562H19.355V8.73337H20.3227V7.76562Z" fill="#FFD500"/>
</svg>
