<svg width="37" height="37" viewBox="0 0 37 37" fill="none" xmlns="http://www.w3.org/2000/svg">
<path d="M28.2056 21.503C28.2056 16.169 23.8531 11.8333 18.4984 11.8333C13.1496 11.8333 8.79705 16.169 8.79705 21.503C8.79705 24.8752 10.5917 27.9979 13.4409 29.739C13.0738 30.1163 12.8408 30.6329 12.8408 31.2017C12.8408 32.0955 13.4118 32.8559 14.2042 33.1576V33.7497C14.2042 35.5432 15.6667 37 17.4672 37H19.5356C21.3302 37 22.7986 35.5432 22.7986 33.7497V33.1576C23.591 32.8558 24.162 32.0955 24.162 31.2017C24.162 30.6329 23.9289 30.1163 23.556 29.739C26.411 27.9979 28.2056 24.8752 28.2056 21.503ZM22.2682 29.1237C21.9827 29.0948 15.0198 29.0948 14.7343 29.1237C11.8327 27.7018 9.96227 24.73 9.96227 21.503C9.96227 16.8132 13.7904 12.9941 18.4984 12.9941C23.2063 12.9941 27.0403 16.8132 27.0403 21.503C27.0403 24.7301 25.1699 27.7018 22.2682 29.1237ZM11.8094 9.17493C11.9259 9.51741 11.8094 9.87143 11.518 10.0862L10.1371 11.0903L10.6615 12.6923C10.7722 13.0348 10.6556 13.3947 10.3643 13.6035C10.0729 13.8125 9.70005 13.8125 9.40868 13.6035L8.03361 12.611L6.65853 13.6035C6.01178 14.0679 5.16108 13.4352 5.39999 12.6923L5.9302 11.0903L4.54929 10.0862C4.25793 9.87143 4.14146 9.51741 4.2521 9.17493C4.36282 8.83826 4.66576 8.61776 5.02705 8.61776H6.72845L7.25866 7.00427C7.5034 6.25546 8.56381 6.25546 8.80855 7.00427L9.33876 8.61776H11.0343C11.3956 8.61776 11.6986 8.83826 11.8094 9.17493ZM32.4532 10.0862L31.0723 11.0903L31.5967 12.6923C31.8473 13.441 30.9849 14.0679 30.344 13.6035L28.9689 12.611L27.5939 13.6035C26.9588 14.0621 26.0964 13.4468 26.3412 12.6923L26.8655 11.0903L25.4846 10.0862C24.8495 9.6219 25.1758 8.61776 25.9682 8.61776H27.6638L28.194 7.00427C28.4387 6.25546 29.4991 6.25546 29.7439 7.00427L30.2741 8.61776H31.9755C32.7621 8.61776 33.0942 9.6219 32.4532 10.0862ZM23.5268 3.63775C23.6608 4.0382 23.5268 4.45607 23.183 4.70575L21.2428 6.11615C21.2136 6.13364 21.202 6.17419 21.2136 6.20314L21.9536 8.4611C22.2391 9.33747 21.2369 10.0688 20.4795 9.52895L18.5508 8.13023C18.5217 8.11282 18.4809 8.11282 18.4517 8.13023L16.5172 9.52895C15.7714 10.0688 14.7634 9.33747 15.0489 8.4611L15.7889 6.20314C15.8006 6.17419 15.7889 6.13364 15.7598 6.11615L13.8195 4.70575C13.0679 4.1601 13.4582 2.98189 14.3789 2.98189H16.7678C16.8028 2.98189 16.8377 2.95868 16.8494 2.92385L17.5894 0.654426C17.8807 -0.216207 19.1218 -0.222012 19.4073 0.660231L20.1531 2.92385C20.1648 2.95868 20.1998 2.98189 20.2347 2.98189H22.6178C23.0432 2.98189 23.3986 3.2373 23.5268 3.63775ZM36.6893 18.8678L35.5764 19.6804L36.0017 20.9689C36.2289 21.6597 35.4307 22.2342 34.8421 21.8106L33.7292 21.0096L32.6221 21.8106C32.0278 22.2401 31.2354 21.6597 31.4625 20.9747L31.8879 19.6804L30.7749 18.8678C30.1865 18.4384 30.4894 17.5096 31.2177 17.5096H32.587L33.0181 16.2095C33.2395 15.5189 34.2242 15.5189 34.4456 16.2095L34.8768 17.5096H36.246C36.9747 17.5096 37.2778 18.4384 36.6893 18.8678ZM6.22739 18.8678L5.11446 19.6804L5.53977 20.9689C5.76703 21.6597 4.96878 22.2401 4.38023 21.8106L3.2673 21.0096L2.1602 21.8106C1.57755 22.2343 0.773462 21.6655 1.00065 20.9689L1.42596 19.6804L0.313034 18.8678C0.044981 18.6762 -0.0657366 18.3397 0.0391538 18.0262C0.138217 17.7186 0.429504 17.5096 0.755829 17.5096H2.12508L2.55039 16.2095C2.65528 15.8961 2.94074 15.693 3.26707 15.693H3.2729C3.59922 15.693 3.88468 15.8961 3.98375 16.2095L4.41489 17.5096H5.78414C6.11046 17.5096 6.40175 17.7187 6.50081 18.0262C6.60033 18.3397 6.48961 18.6763 6.22739 18.8678Z" fill="#FFD500"/>
</svg>
