<svg width="31" height="31" viewBox="0 0 31 31" fill="none" xmlns="http://www.w3.org/2000/svg">
<g clip-path="url(#clip0_1_6430)">
<path d="M30.7932 14.9211C27.9756 11.4884 22.0105 7.48242 15.5 7.48242C8.96627 7.48242 3.00083 11.5156 0.206879 14.9211C-0.0689598 15.2573 -0.0689598 15.7416 0.206879 16.0778C3.09122 19.5935 9.07039 23.5165 15.5 23.5165C22.1582 23.5165 28.0979 19.3615 30.7932 16.0778C31.069 15.7416 31.069 15.2573 30.7932 14.9211ZM21.6935 15.4994C21.6935 18.9146 18.9151 21.693 15.5 21.693C12.0847 21.693 9.30641 18.9144 9.30641 15.4994C9.30641 12.0843 12.0848 9.30589 15.5 9.30589C18.9154 9.30595 21.6935 12.0847 21.6935 15.4994ZM2.14341 15.4997C3.16963 14.4331 5.64404 12.1313 9.11756 10.6539C6.93771 13.5182 6.93686 17.4783 9.11652 20.3437C6.47551 19.2243 4.02213 17.4559 2.14341 15.4997ZM21.8825 20.345C24.0624 17.4807 24.0631 13.5206 21.8835 10.6552C24.5244 11.7746 26.9779 13.5431 28.8567 15.4991C27.8304 16.5658 25.356 18.8676 21.8825 20.345Z" fill="#FFD500"/>
<path d="M12.3999 15.5004C12.3999 17.2098 13.7905 18.6004 15.4999 18.6004C17.2092 18.6004 18.5999 17.2098 18.5999 15.5004C18.5999 13.791 17.2092 12.4004 15.4999 12.4004C13.7905 12.4004 12.3999 13.791 12.3999 15.5004ZM16.7764 15.5004C16.7764 16.2043 16.2037 16.7769 15.4999 16.7769C14.796 16.7769 14.2234 16.2043 14.2234 15.5004C14.2234 14.7965 14.796 14.2239 15.4999 14.2239C16.2037 14.2239 16.7764 14.7965 16.7764 15.5004Z" fill="#FFD500"/>
<path d="M15.5 3.95098C16.0036 3.95098 16.4118 3.54275 16.4118 3.03922V0.911765C16.4118 0.408227 16.0036 0 15.5 0C14.9965 0 14.5883 0.408227 14.5883 0.911765V3.03922C14.5883 3.54275 14.9965 3.95098 15.5 3.95098Z" fill="#FFD500"/>
<path d="M20.9402 5.17126C21.3773 5.4206 21.9343 5.26857 22.1839 4.83093L23.3972 2.70348C23.6467 2.26607 23.4944 1.70929 23.057 1.45977C22.6195 1.21031 22.0628 1.36257 21.8133 1.8001L20.5999 3.92755C20.3504 4.36489 20.5028 4.92174 20.9402 5.17126Z" fill="#FFD500"/>
<path d="M8.8162 4.83092C9.06566 5.26832 9.62244 5.42065 10.0599 5.17119C10.4973 4.92173 10.6496 4.36488 10.4002 3.92748L9.1868 1.80003C8.93734 1.36262 8.38044 1.2103 7.94309 1.45976C7.50569 1.70922 7.35337 2.26606 7.60282 2.70347L8.8162 4.83092Z" fill="#FFD500"/>
<path d="M15.5 27.049C14.9965 27.049 14.5883 27.4572 14.5883 27.9608V30.0882C14.5883 30.5918 14.9965 31 15.5 31C16.0036 31 16.4118 30.5918 16.4118 30.0882V27.9608C16.4118 27.4572 16.0036 27.049 15.5 27.049Z" fill="#FFD500"/>
<path d="M10.0599 25.8289C9.6225 25.5795 9.06572 25.7317 8.8162 26.1691L7.60282 28.2966C7.35337 28.734 7.50569 29.2908 7.94309 29.5403C8.38056 29.7898 8.93734 29.6374 9.1868 29.2L10.4002 27.0726C10.6497 26.6352 10.4973 26.0783 10.0599 25.8289Z" fill="#FFD500"/>
<path d="M22.1839 26.1692C21.9344 25.7317 21.3774 25.5795 20.9402 25.8288C20.5028 26.0783 20.3504 26.6351 20.5999 27.0726L21.8133 29.2C22.0627 29.6374 22.6195 29.7898 23.057 29.5403C23.4944 29.2909 23.6467 28.734 23.3972 28.2966L22.1839 26.1692Z" fill="#FFD500"/>
</g>
<defs>
<clipPath id="clip0_1_6430">
<rect width="31" height="31" fill="white"/>
</clipPath>
</defs>
</svg>
