<svg width="22" height="22" viewBox="0 0 22 22" fill="none" xmlns="http://www.w3.org/2000/svg">
<path d="M19.7015 5.2622C19.026 5.56922 18.298 5.77097 17.5436 5.86746C18.3155 5.40255 18.912 4.66571 19.1927 3.77974C18.4646 4.21834 17.6576 4.52536 16.8067 4.7008C16.1137 3.94641 15.1401 3.50781 14.0348 3.50781C11.9734 3.50781 10.2892 5.19202 10.2892 7.27097C10.2892 7.56922 10.3243 7.85869 10.3857 8.13062C7.26287 7.97272 4.48216 6.47272 2.63129 4.20079C2.30673 4.75343 2.12252 5.40255 2.12252 6.08676C2.12252 7.39378 2.78041 8.55167 3.79795 9.20957C3.17515 9.20957 2.5962 9.03413 2.08743 8.77097V8.79729C2.08743 10.6218 3.38567 12.1482 5.10497 12.4903C4.55298 12.6413 3.97348 12.6623 3.41199 12.5517C3.65024 13.2995 4.11685 13.9538 4.74621 14.4227C5.37558 14.8915 6.13607 15.1514 6.92076 15.1657C5.59061 16.2187 3.94181 16.7879 2.24532 16.7797C1.94708 16.7797 1.64883 16.7622 1.35059 16.7271C3.01725 17.7973 4.99971 18.4201 7.12252 18.4201C14.0348 18.4201 17.833 12.6833 17.833 7.70957C17.833 7.5429 17.833 7.385 17.8243 7.21834C18.5611 6.69202 19.1927 6.02536 19.7015 5.2622Z" fill="white"/>
</svg>
