<svg width="22" height="22" viewBox="0 0 22 22" fill="none" xmlns="http://www.w3.org/2000/svg">
<path d="M10.6718 2.63281C11.3701 2.63281 13.7376 2.82843 14.8552 5.32843C15.2289 6.16965 15.1394 7.59948 15.0657 8.74772L15.0639 8.78895C15.0543 8.91702 15.0482 9.03281 15.0429 9.1486C15.1296 9.19478 15.2272 9.21661 15.3253 9.21176C15.5368 9.20036 15.7903 9.12755 16.0543 9.00036C16.1559 8.95004 16.2681 8.92477 16.3815 8.92667C16.5096 8.92667 16.635 8.94685 16.7403 8.98983C17.0569 9.09509 17.2578 9.32755 17.2578 9.58106C17.2692 9.89772 16.9832 10.1732 16.4025 10.4047C16.3403 10.4249 16.2543 10.4583 16.1604 10.489C15.842 10.5846 15.356 10.7425 15.2192 11.06C15.156 11.2188 15.1762 11.4293 15.3052 11.6714L15.3157 11.6828C15.3578 11.7784 16.3929 14.1346 18.6964 14.5153C18.7809 14.5289 18.8575 14.5728 18.9119 14.6389C18.9663 14.7049 18.9948 14.7885 18.992 14.874C18.992 14.9267 18.9806 14.9784 18.9604 15.0328C18.7911 15.4337 18.0631 15.7302 16.7411 15.9284C16.6999 15.9925 16.6569 16.1933 16.6253 16.3311C16.606 16.4574 16.5727 16.5846 16.5315 16.7205C16.478 16.9118 16.3411 17.0056 16.1403 17.0056H16.1192C15.9913 16.9997 15.8642 16.9824 15.7394 16.9539C15.4442 16.8902 15.1431 16.8584 14.8411 16.8591C14.6306 16.8591 14.4201 16.8697 14.199 16.9118C13.7753 16.9854 13.406 17.239 12.9832 17.5346C12.3806 17.9565 11.6946 18.4433 10.6596 18.4433C10.6175 18.4433 10.5753 18.4328 10.5315 18.4328H10.4271C9.39114 18.4328 8.7157 17.9565 8.11394 17.524C7.69201 17.2275 7.33324 16.9749 6.90956 16.9004C6.69317 16.868 6.47483 16.8504 6.25605 16.8477C5.87447 16.8477 5.57973 16.9109 5.35868 16.953C5.20956 16.9837 5.08324 17.0047 4.9771 17.0047C4.8846 17.0118 4.79258 16.986 4.71719 16.9319C4.6418 16.8779 4.58785 16.799 4.56482 16.7091C4.52272 16.574 4.50254 16.4346 4.47096 16.3091C4.43763 16.1811 4.3964 15.9618 4.3543 15.9074C3.00079 15.7504 2.27272 15.4539 2.1043 15.0425C2.08103 14.9926 2.06791 14.9386 2.0657 14.8837C2.06233 14.798 2.09059 14.7141 2.14511 14.6479C2.19963 14.5818 2.27659 14.538 2.36131 14.5249C4.66395 14.1442 5.69903 11.789 5.74202 11.6898L5.75342 11.6697C5.88061 11.4267 5.91131 11.2135 5.83763 11.0565C5.70079 10.7504 5.21395 10.5925 4.89903 10.4863C4.81524 10.4652 4.73337 10.437 4.6543 10.4021C3.87359 10.0951 3.76745 9.74597 3.81044 9.50386C3.87359 9.16702 4.285 8.94509 4.63412 8.94509C4.73675 8.94509 4.82447 8.96527 4.9043 8.99772C5.19991 9.13369 5.46131 9.20913 5.68324 9.20913C5.79695 9.2133 5.90976 9.18759 6.01044 9.13457L5.97447 8.73281C5.9043 7.58632 5.81482 6.15825 6.19114 5.32141C7.27535 2.83369 9.63763 2.64246 10.335 2.64246L10.6289 2.63281H10.6718Z" fill="white"/>
</svg>
