<svg width="22" height="22" viewBox="0 0 22 22" fill="none" xmlns="http://www.w3.org/2000/svg">
<path d="M18.921 5.57977C16.171 1.31662 10.5394 0.0534583 6.18417 2.69819C1.93417 5.34293 0.565752 11.1061 3.31575 15.3561L3.53944 15.6982L2.61838 19.1456L6.06575 18.2245L6.40786 18.4482C7.8947 19.2508 9.51312 19.7114 11.1184 19.7114C12.8421 19.7114 14.5658 19.2508 16.0526 18.3298C20.3026 15.5666 21.5658 9.92188 18.921 5.55346V5.57977ZM16.5131 14.4482C16.0526 15.1324 15.4736 15.5929 14.671 15.7114C14.2105 15.7114 13.6315 15.935 11.3421 15.0271C9.3947 14.1061 7.77628 12.6061 6.63154 10.8824C5.94733 10.0798 5.59207 9.0403 5.48681 8.00083C5.48681 7.07977 5.82891 6.27714 6.40786 5.69819C6.63154 5.47451 6.86838 5.35609 7.09207 5.35609H7.67102C7.8947 5.35609 8.13154 5.35609 8.24996 5.81662C8.47365 6.39556 9.05259 7.77714 9.05259 7.89556C9.17102 8.01398 9.11838 8.89556 8.59207 9.39556C8.3026 9.72451 8.24996 9.73767 8.36838 9.97451C8.82891 10.6587 9.40786 11.3561 9.97365 11.935C10.6579 12.514 11.3552 12.9745 12.1579 13.3166C12.3815 13.435 12.6184 13.435 12.7368 13.1982C12.8552 12.9745 13.421 12.3956 13.6579 12.1587C13.8815 11.935 14 11.935 14.2368 12.0403L16.0789 12.9614C16.3026 13.0798 16.5394 13.185 16.6579 13.3035C16.7763 13.6456 16.7763 14.1061 16.5394 14.4482H16.5131Z" fill="white"/>
</svg>
