<svg width="43" height="39" viewBox="0 0 43 39" fill="none" xmlns="http://www.w3.org/2000/svg">
<path d="M33.0179 18.0098H36.0195V28.5155C36.0195 29.7096 35.5452 30.8548 34.7008 31.6992C33.8564 32.5435 32.7112 33.0179 31.5171 33.0179H17.3344L9.92038 38.706C9.70711 38.8637 9.45587 38.962 9.19224 38.991C8.92861 39.02 8.662 38.9786 8.41956 38.8711C8.15294 38.7582 7.92465 38.5707 7.76221 38.331C7.59977 38.0913 7.51012 37.8098 7.50407 37.5203V33.0179H4.50244C3.30832 33.0179 2.16311 32.5435 1.31873 31.6992C0.474363 30.8548 0 29.7096 0 28.5155V10.5057C0 9.31157 0.474363 8.16636 1.31873 7.32199C2.16311 6.47762 3.30832 6.00325 4.50244 6.00325H24.013V9.00488H4.50244C4.1044 9.00488 3.72266 9.163 3.44121 9.44446C3.15975 9.72592 3.00163 10.1077 3.00163 10.5057V28.5155C3.00163 28.9135 3.15975 29.2952 3.44121 29.5767C3.72266 29.8582 4.1044 30.0163 4.50244 30.0163H9.00488C9.40292 30.0163 9.78466 30.1744 10.0661 30.4558C10.3476 30.7373 10.5057 31.119 10.5057 31.5171V34.5187L15.9086 30.3765C16.1706 30.1732 16.4925 30.0623 16.8241 30.0613H31.5171C31.9151 30.0613 32.2969 29.9032 32.5783 29.6217C32.8598 29.3403 33.0179 28.9585 33.0179 28.5605V18.0098ZM42.0228 6.00325H36.0195V0H33.0179V6.00325H27.0146V9.00488H33.0179V15.0081H36.0195V9.00488H42.0228V6.00325Z" fill="#FFD500"/>
</svg>
