<svg width="21" height="19" viewBox="0 0 21 19" fill="none" xmlns="http://www.w3.org/2000/svg">
<path d="M14.5734 11.006C14.7569 10.5156 14.85 9.99613 14.8481 9.47262C14.8481 8.31024 14.3864 7.19546 13.5644 6.37353C12.7425 5.5516 11.6277 5.08984 10.4653 5.08984C9.94828 5.09045 9.43549 5.18349 8.95117 5.36457L9.97978 6.42512C10.1361 6.40011 10.2942 6.38729 10.4526 6.38679C11.2744 6.38507 12.0636 6.70862 12.6478 7.28679C13.2319 7.86495 13.5636 8.65076 13.5703 9.47262C13.5698 9.63097 13.557 9.78904 13.532 9.9454L14.5734 11.006Z" fill="#B0B0B0"/>
<path d="M20.3866 9.17405C18.2336 5.19377 14.4578 2.78516 10.2794 2.78516C9.14178 2.78783 8.01179 2.97113 6.93164 3.32821L7.96025 4.36321C8.71788 4.16741 9.49691 4.06655 10.2794 4.06293C13.8764 4.06293 17.1475 6.06904 19.0961 9.44877C18.3813 10.7027 17.4337 11.8086 16.3041 12.7071L17.2114 13.6143C18.5186 12.5597 19.6042 11.2569 20.4058 9.78099L20.5719 9.47432L20.3866 9.17405Z" fill="#B0B0B0"/>
<path d="M1.59083 1.66679L4.44028 4.51623C2.6392 5.67589 1.16719 7.27992 0.166111 9.17373L0 9.47401L0.166111 9.78068C2.31917 13.761 6.095 16.1696 10.2733 16.1696C11.9042 16.1692 13.5139 15.8001 14.9819 15.0898L18.1764 18.2843L19.2944 17.326L2.68333 0.714844L1.59083 1.66679ZM7.82 7.89595L12.0686 12.1446C11.5886 12.4417 11.0359 12.6009 10.4714 12.6046C10.0612 12.6046 9.65501 12.5235 9.27627 12.3659C8.89752 12.2083 8.55367 11.9774 8.2645 11.6865C7.97533 11.3955 7.74655 11.0503 7.59132 10.6706C7.43609 10.2909 7.35747 9.88421 7.36 9.47401C7.3672 8.91598 7.52622 8.37045 7.82 7.89595ZM6.89361 6.96957C6.29589 7.81252 6.01573 8.83978 6.10274 9.86948C6.18975 10.8992 6.63832 11.8649 7.36901 12.5956C8.09971 13.3263 9.0654 13.7748 10.0951 13.8618C11.1248 13.9488 12.152 13.6687 12.995 13.071L14.0172 14.0932C12.8339 14.599 11.5603 14.8598 10.2733 14.8598C6.67639 14.8598 3.40528 12.8537 1.45667 9.47401C2.39181 7.81815 3.7386 6.43175 5.36667 5.44901L6.89361 6.96957Z" fill="#B0B0B0"/>
</svg>
