<svg width="40" height="40" viewBox="0 0 40 40" fill="none" xmlns="http://www.w3.org/2000/svg">
<circle cx="20" cy="20" r="19.5" stroke="#DB9E3B"/>
<path d="M20 30.5C18.5549 30.5 17.1938 30.2239 15.9167 29.6717C14.6396 29.1194 13.5273 28.3689 12.58 27.42C11.6311 26.4734 10.8806 25.3612 10.3283 24.0833C9.77611 22.8062 9.5 21.4451 9.5 20C9.5 18.551 9.77611 17.1887 10.3283 15.9132C10.8813 14.6376 11.6319 13.5262 12.58 12.5788C13.5266 11.6315 14.6388 10.8817 15.9167 10.3295C17.1938 9.7765 18.5549 9.5 20 9.5C21.449 9.5 22.8113 9.77611 24.0868 10.3283C25.3624 10.8813 26.4738 11.6319 27.4212 12.58C28.3685 13.5273 29.1183 14.6384 29.6705 15.9132C30.2235 17.1887 30.5 18.551 30.5 20C30.5 21.4451 30.2239 22.8062 29.6717 24.0833C29.1194 25.3604 28.3689 26.4727 27.42 27.42C26.4727 28.3681 25.3616 29.1187 24.0868 29.6717C22.8113 30.2239 21.449 30.5 20 30.5ZM20 29.3427C20.6844 28.463 21.2491 27.5993 21.694 26.7515C22.1381 25.9037 22.4994 24.9548 22.7778 23.9048H17.2222C17.5302 25.0139 17.8988 25.9924 18.3282 26.8402C18.7575 27.6879 19.3148 28.5221 20 29.3427ZM18.5148 29.1677C17.9704 28.526 17.4734 27.7327 17.0238 26.7877C16.5743 25.8434 16.2398 24.8821 16.0205 23.9037H11.5452C12.2141 25.355 13.1618 26.545 14.3883 27.4737C15.6157 28.4023 16.9908 28.967 18.5137 29.1677H18.5148ZM21.4852 29.1677C23.0081 28.967 24.3832 28.4023 25.6105 27.4737C26.8378 26.545 27.7856 25.355 28.4537 23.9037H23.9807C23.6851 24.8969 23.3129 25.866 22.8642 26.811C22.4146 27.7552 21.9549 28.5408 21.4852 29.1677ZM11.0703 22.737H15.7778C15.6892 22.2587 15.6269 21.7924 15.5912 21.3382C15.5538 20.8839 15.5352 20.4379 15.5352 20C15.5352 19.5621 15.5534 19.1161 15.59 18.6618C15.6266 18.2076 15.6888 17.7409 15.7767 17.2618H11.0715C10.9447 17.6663 10.8456 18.1069 10.774 18.5837C10.7024 19.0604 10.6667 19.5326 10.6667 20C10.6667 20.4682 10.7021 20.9403 10.7728 21.4163C10.8444 21.8931 10.9436 22.3333 11.0703 22.737ZM16.9445 22.737H23.0555C23.1442 22.2587 23.2064 21.7998 23.2422 21.3603C23.2795 20.9217 23.2982 20.4682 23.2982 20C23.2982 19.5318 23.2799 19.0783 23.2433 18.6397C23.2068 18.2002 23.1446 17.7413 23.0567 17.263H16.9433C16.8554 17.7413 16.7932 18.2002 16.7567 18.6397C16.7201 19.0783 16.7018 19.5318 16.7018 20C16.7018 20.4682 16.7201 20.9217 16.7567 21.3603C16.7932 21.7998 16.8566 22.2587 16.9445 22.737ZM24.2222 22.737H28.9297C29.0564 22.3326 29.1556 21.8923 29.2272 21.4163C29.2987 20.9403 29.3341 20.4682 29.3333 20C29.3333 19.5318 29.2979 19.0597 29.2272 18.5837C29.1556 18.1069 29.0564 17.6667 28.9297 17.263H24.2222C24.3108 17.7413 24.3731 18.2076 24.4088 18.6618C24.4462 19.1161 24.4648 19.5621 24.4648 20C24.4648 20.4379 24.4466 20.8839 24.41 21.3382C24.3734 21.7924 24.3112 22.2591 24.2233 22.7382L24.2222 22.737ZM23.9807 16.0963H28.4537C27.77 14.6154 26.8336 13.4254 25.6443 12.5263C24.4543 11.6272 23.0679 11.0556 21.4852 10.8113C22.0296 11.5269 22.5192 12.3459 22.954 13.2683C23.388 14.19 23.7302 15.1327 23.9807 16.0963ZM17.2222 16.0963H22.7778C22.4698 15.0012 22.0899 14.0111 21.638 13.126C21.1869 12.2401 20.6409 11.4172 20 10.6573C19.3599 11.4172 18.8139 12.2401 18.362 13.126C17.9109 14.0111 17.5309 15.0012 17.2222 16.0963ZM11.5463 16.0963H16.0193C16.2698 15.1327 16.612 14.19 17.046 13.2683C17.4808 12.3459 17.9704 11.5265 18.5148 10.8102C16.9173 11.0552 15.5274 11.6307 14.3452 12.5368C13.1629 13.4437 12.2296 14.6298 11.5452 16.0952L11.5463 16.0963Z" fill="#DB9E3B"/>
</svg>
