<svg width="93" height="70" viewBox="0 0 93 70" fill="none" xmlns="http://www.w3.org/2000/svg">
<path d="M49.7549 40.031H50.0717C57.0273 40.031 62.658 34.3702 62.658 27.3774V17.9669C62.658 14.3909 59.7634 11.4808 56.2064 11.4808C52.6494 11.4808 49.7549 14.3909 49.7549 17.9669V40.031Z" fill="#FFCE00"/>
<path d="M56.2062 10.9452C59.2125 10.9452 61.6497 8.49503 61.6497 5.4726C61.6497 2.45016 59.2125 0 56.2062 0C53.1998 0 50.7627 2.45016 50.7627 5.4726C50.7627 8.49503 53.1998 10.9452 56.2062 10.9452Z" fill="#FFCE00"/>
<path d="M43.9227 29.3609C41.9498 30.3164 41.1433 32.9369 42.5978 34.7177C42.9722 35.1665 42.3242 35.818 41.9498 35.3692C40.1785 33.212 40.8697 29.969 43.3178 28.6515C44.9163 27.7973 46.7164 27.9421 48.1565 28.7818V25.9297V16.0414C46.6156 15.4043 44.8443 15.5346 43.3466 16.4612C44.1819 18.546 42.785 20.6887 40.7833 21.3547C40.2217 21.5429 39.9913 20.6598 40.5385 20.4716C42.0938 19.9504 43.217 18.2565 42.4394 16.635C41.5754 14.8397 39.2136 15.0714 37.7016 15.7084C37.1687 15.94 36.7079 15.1437 37.2407 14.9121C39.0696 14.1303 41.6186 13.9421 42.9002 15.636C44.5131 14.637 46.4428 14.4633 48.1709 15.0424V13.2037V11.1189C46.8748 11.2203 45.5356 10.7859 44.5995 9.85936C43.3754 8.64323 42.9578 6.76112 43.5051 5.12513C43.6923 4.57497 44.5707 4.80662 44.3835 5.37125C43.9515 6.70321 44.2395 8.22337 45.2475 9.20786C46.0252 9.97518 47.1196 10.2937 48.1709 10.1923V7.96277V0.101344C47.7965 0.0434333 47.4221 0 47.0332 0C43.5195 0 40.6393 2.75078 40.4233 6.23992C41.2585 6.37022 42.0362 6.71768 42.7418 7.26784C43.2026 7.62978 42.569 8.28128 42.1082 7.91934C41.6042 7.52844 41.0137 7.26784 40.3945 7.15202C40.1785 7.12306 39.9481 7.10858 39.7177 7.10858C37.1975 7.10858 35.1526 9.16443 35.1526 11.698C35.1526 12.2771 35.2534 12.8128 35.455 13.3195C32.4885 14.2316 30.3428 17.0114 30.3428 20.2834C30.3428 22.7446 31.5668 24.9307 33.4245 26.2482C33.9718 25.09 34.9654 24.2358 36.1751 23.8304C35.9879 22.5564 37.0103 21.5864 38.2056 21.4705C38.796 21.4126 38.7816 22.3392 38.2056 22.3826C37.5287 22.4405 36.9527 23.0052 37.0679 23.7146C37.2263 24.5977 38.1768 24.6846 38.8824 24.4819C39.444 24.3226 39.6889 25.2058 39.1272 25.365C38.1624 25.6401 37.0391 25.4374 36.4919 24.6556C35.4406 24.9886 34.6486 25.7415 34.2022 26.726C34.2022 26.726 34.2022 26.726 34.2166 26.726C34.0294 27.1603 33.9286 27.6381 33.9286 28.1448C33.9286 29.3899 34.5478 30.4902 35.4982 31.1562C35.2822 31.7208 35.1526 32.3433 35.1526 32.9804C35.1526 35.3402 36.7799 37.3237 38.9688 37.8594C39.156 38.7715 39.9625 39.4664 40.9273 39.4664C41.4313 39.4664 41.8922 39.2782 42.2378 38.9742C43.4186 39.7994 44.8443 40.2916 46.3852 40.2916C46.99 40.2916 47.5805 40.2192 48.1565 40.0745V30.6639V29.8676C46.9612 28.9555 45.3772 28.666 43.9227 29.3609Z" fill="#FFCE00"/>
<path d="M89.9326 56.0724H90.0046C91.6607 56.0724 93 54.7259 93 53.061V45.0837H92.928C91.2719 45.0837 89.9326 46.4302 89.9326 48.0951V56.0724Z" fill="#FFCE00"/>
<path d="M0.331217 56.0724C0.115206 56.0724 0 55.9566 0 55.7249V54.7694C0 53.0755 0.489625 51.7001 1.46888 50.6143C2.47693 49.514 3.8162 48.9493 5.47228 48.9493H8.65485C8.88526 48.9493 9.00046 49.0652 9.00046 49.2968V51.8449C9.00046 52.0765 8.88526 52.1924 8.65485 52.1924H5.47228C4.76665 52.1924 4.23382 52.4095 3.8738 52.8294H9.6341V49.2968C9.6341 49.0652 9.7493 48.9493 9.97972 48.9493H16.3592C16.5897 48.9493 16.7049 49.0652 16.7049 49.2968V55.7394C16.7049 55.9711 16.5897 56.0869 16.3592 56.0869H13.8247C13.5943 56.0869 13.4791 55.9711 13.4791 55.7394V52.2068H12.8455V55.7394C12.8455 55.9711 12.7303 56.0869 12.4998 56.0869H0.331217V56.0724Z" fill="#FFCE00"/>
<path d="M17.6701 56.0723C17.4541 56.0723 17.3389 55.9565 17.3389 55.7249V49.3112C17.3389 49.0796 17.4541 48.9637 17.6701 48.9637H20.219C20.435 48.9637 20.5502 49.0796 20.5502 49.3112V55.7393C20.5502 55.971 20.435 56.0868 20.219 56.0868H17.6701V56.0723Z" fill="#FFCE00"/>
<path d="M21.5295 56.0723C21.3134 56.0723 21.1982 55.9565 21.1982 55.7249V49.3112C21.1982 49.0796 21.3134 48.9637 21.5295 48.9637H30.4867C32.1428 48.9637 33.4821 49.5139 34.5045 50.6287C35.4838 51.7 35.9734 53.0899 35.9734 54.7838V55.7393C35.9734 55.971 35.8582 56.0868 35.6278 56.0868H21.5295V56.0723ZM26.3393 52.8438V52.2068H24.4096V52.8438H26.3393ZM32.0996 52.8438C31.7252 52.4239 31.178 52.2068 30.4867 52.2068H29.5507V52.8438H32.0996Z" fill="#FFCE00"/>
<path d="M36.9377 56.0724C36.7217 56.0724 36.6064 55.9566 36.6064 55.7249V53.1768C36.6064 52.9452 36.7217 52.8294 36.9377 52.8294H39.1698C38.7954 52.4095 38.2625 52.1924 37.5713 52.1924H36.9521C36.7361 52.1924 36.6208 52.0765 36.6208 51.8449V49.2968C36.6208 49.0652 36.7361 48.9493 36.9521 48.9493H37.5713C39.2274 48.9493 40.5667 49.4995 41.5603 50.6143C42.5396 51.6856 43.0148 53.0755 43.0148 54.7694V55.7249C43.0148 55.9566 42.8996 56.0724 42.6836 56.0724H36.9377Z" fill="#FFCE00"/>
<path d="M54.9963 56.0724C54.7802 56.0724 54.665 55.9566 54.665 55.7249V54.7694C54.665 53.0755 55.1547 51.7001 56.1339 50.6143C57.142 49.514 58.4812 48.9493 60.1373 48.9493H61.995C62.2254 48.9493 62.3406 49.0652 62.3406 49.2968V51.8449C62.3406 52.0765 62.2254 52.1924 61.995 52.1924H59.9789C59.2589 52.1924 58.7836 52.4095 58.5244 52.8294H61.995C62.2254 52.8294 62.3406 52.9452 62.3406 53.1768V55.7394C62.3406 55.9711 62.2254 56.0869 61.995 56.0869H54.9963V56.0724Z" fill="#FFCE00"/>
<path d="M67.1652 56.0724C66.9492 56.0724 66.834 55.9566 66.834 55.7249V50.8894C66.834 50.3537 67.05 49.9049 67.4964 49.514C67.9428 49.1376 68.4757 48.9493 69.0949 48.9493H73.5735C73.8039 48.9493 73.9191 49.0652 73.9191 49.2968V55.7394C73.9191 55.9711 73.8039 56.0869 73.5735 56.0869H67.1652V56.0724ZM70.6934 52.8439V52.2068H70.0309V52.8439H70.6934Z" fill="#FFCE00"/>
<path d="M74.8693 56.0723C74.6533 56.0723 74.5381 55.9565 74.5381 55.7249V49.3112C74.5381 49.0796 74.6533 48.9637 74.8693 48.9637H77.4182C77.6342 48.9637 77.7495 49.0796 77.7495 49.3112V52.8438H78.3975V49.3112C78.3975 49.0796 78.5127 48.9637 78.7431 48.9637H81.2776C81.5081 48.9637 81.6233 49.0796 81.6233 49.3112V52.8438H82.2569V49.3112C82.2569 49.0796 82.3721 48.9637 82.6025 48.9637H85.137C85.3674 48.9637 85.4827 49.0796 85.4827 49.3112V55.7393C85.4827 55.971 85.3674 56.0868 85.137 56.0868H74.8693V56.0723Z" fill="#FFCE00"/>
<path d="M86.1738 56.0724H86.2458C87.9019 56.0724 89.2412 54.7259 89.2412 53.061V45.0837H89.1692C87.5131 45.0837 86.1738 46.4302 86.1738 48.0951V56.0724Z" fill="#FFCE00"/>
<path d="M47.4365 56.0724H47.5085C49.1646 56.0724 50.5039 54.7259 50.5039 53.061V45.0837H50.4319C48.7758 45.0837 47.4365 46.4302 47.4365 48.0951V56.0724Z" fill="#FFCE00"/>
<path d="M43.6631 56.0724H43.7351C45.3912 56.0724 46.7304 54.7259 46.7304 53.061V45.0837H46.6584C45.0024 45.0837 43.6631 46.4302 43.6631 48.0951V56.0724Z" fill="#FFCE00"/>
<path d="M63.0605 56.0724H66.1279V45.0837H66.0559C64.3998 45.0837 63.0605 46.4302 63.0605 48.0951V56.0724Z" fill="#FFCE00"/>
<path d="M76.1512 48.3847C77.034 48.3847 77.7497 47.6652 77.7497 46.7777C77.7497 45.8901 77.034 45.1707 76.1512 45.1707C75.2684 45.1707 74.5527 45.8901 74.5527 46.7777C74.5527 47.6652 75.2684 48.3847 76.1512 48.3847Z" fill="#FFCE00"/>
<path d="M70.3622 48.3847C71.245 48.3847 71.9606 47.6652 71.9606 46.7777C71.9606 45.8901 71.245 45.1707 70.3622 45.1707C69.4793 45.1707 68.7637 45.8901 68.7637 46.7777C68.7637 47.6652 69.4793 48.3847 70.3622 48.3847Z" fill="#FFCE00"/>
<path d="M38.2196 48.3267C39.1024 48.3267 39.8181 47.6072 39.8181 46.7197C39.8181 45.8322 39.1024 45.1127 38.2196 45.1127C37.3368 45.1127 36.6211 45.8322 36.6211 46.7197C36.6211 47.6072 37.3368 48.3267 38.2196 48.3267Z" fill="#FFCE00"/>
<path d="M18.951 59.9379C19.8338 59.9379 20.5495 59.2184 20.5495 58.3309C20.5495 57.4434 19.8338 56.7239 18.951 56.7239C18.0682 56.7239 17.3525 57.4434 17.3525 58.3309C17.3525 59.2184 18.0682 59.9379 18.951 59.9379Z" fill="#FFCE00"/>
<path d="M15.0916 59.9379C15.9745 59.9379 16.6901 59.2184 16.6901 58.3309C16.6901 57.4434 15.9745 56.7239 15.0916 56.7239C14.2088 56.7239 13.4932 57.4434 13.4932 58.3309C13.4932 59.2184 14.2088 59.9379 15.0916 59.9379Z" fill="#FFCE00"/>
<path d="M11.2323 59.9379C12.1151 59.9379 12.8308 59.2184 12.8308 58.3309C12.8308 57.4434 12.1151 56.7239 11.2323 56.7239C10.3495 56.7239 9.63379 57.4434 9.63379 58.3309C9.63379 59.2184 10.3495 59.9379 11.2323 59.9379Z" fill="#FFCE00"/>
<path d="M80.0106 48.3847C80.8934 48.3847 81.6091 47.6652 81.6091 46.7777C81.6091 45.8901 80.8934 45.1707 80.0106 45.1707C79.1278 45.1707 78.4121 45.8901 78.4121 46.7777C78.4121 47.6652 79.1278 48.3847 80.0106 48.3847Z" fill="#FFCE00"/>
<path d="M83.8846 48.3847C84.7674 48.3847 85.4831 47.6652 85.4831 46.7777C85.4831 45.8901 84.7674 45.1707 83.8846 45.1707C83.0018 45.1707 82.2861 45.8901 82.2861 46.7777C82.2861 47.6652 83.0018 48.3847 83.8846 48.3847Z" fill="#FFCE00"/>
<path d="M2.64974 67.6256L2.0305 69.8552H0L2.64974 61.1541H5.21307L7.89161 69.8552H5.7891L5.12666 67.6256H2.64974ZM4.83865 66.1489L4.30582 64.2957C4.14741 63.7745 4.00341 63.1375 3.8738 62.6163H3.845C3.71539 63.1375 3.58578 63.789 3.44178 64.2957L2.92335 66.1489H4.83865Z" fill="#FFD500"/>
<path d="M8.91406 60.6908H10.8726V69.8552H8.91406V60.6908Z" fill="#FFD500"/>
<path d="M12.4423 68.1324C12.8023 68.3495 13.5512 68.6101 14.1272 68.6101C14.7176 68.6101 14.9624 68.4075 14.9624 68.0745C14.9624 67.756 14.7752 67.5967 14.0408 67.3506C12.7447 66.9162 12.2407 66.2068 12.2551 65.454C12.2551 64.2813 13.2631 63.3837 14.8184 63.3837C15.5529 63.3837 16.2009 63.5574 16.5897 63.7456L16.2441 65.1065C15.9561 64.9473 15.4233 64.7446 14.876 64.7446C14.4008 64.7446 14.1272 64.9328 14.1272 65.2658C14.1272 65.5698 14.372 65.7146 15.1352 65.9897C16.3305 66.4095 16.8345 67.0031 16.8489 67.9442C16.8489 69.1169 15.9273 69.9855 14.1272 69.9855C13.3063 69.9855 12.5719 69.8118 12.0967 69.5512L12.4423 68.1324Z" fill="#FFD500"/>
<path d="M18.0293 60.6908H19.9878V64.2958H20.0166C20.2182 64.0207 20.4774 63.818 20.7942 63.6443C21.0823 63.485 21.4423 63.3981 21.8023 63.3981C23.0552 63.3981 24.0056 64.2668 24.0056 66.1634V69.8552H22.0327V66.3806C22.0327 65.5553 21.7447 64.9907 21.0247 64.9907C20.5062 64.9907 20.1894 65.3237 20.0454 65.6711C19.9878 65.8014 19.9878 65.9752 19.9878 66.1055V69.8552H18.0293V60.6908Z" fill="#FFD500"/>
<path d="M27.5626 61.7767C27.5626 62.3124 27.145 62.7612 26.5114 62.7612C25.8921 62.7612 25.4889 62.3268 25.5033 61.7767C25.4889 61.212 25.9065 60.7777 26.5258 60.7777C27.1594 60.7922 27.5482 61.212 27.5626 61.7767ZM25.5465 69.8553V63.543H27.505V69.8553H25.5465Z" fill="#FFD500"/>
<path d="M29.2915 69.8552V64.9907H28.4707V63.5429H29.2915V63.2968C29.2915 62.5295 29.522 61.6898 30.0836 61.183C30.5732 60.7198 31.25 60.546 31.8117 60.546C32.2437 60.546 32.5893 60.6039 32.8485 60.6763L32.7765 62.182C32.6037 62.1241 32.4021 62.0951 32.1429 62.0951C31.4949 62.0951 31.2356 62.6019 31.2356 63.2244V63.5429H32.4885V64.9907H31.25V69.8552H29.2915Z" fill="#FFD500"/>
<path d="M37.0242 69.8552L36.909 69.2182H36.8658C36.4481 69.7249 35.8145 70 35.0657 70C33.7984 70 33.0352 69.0734 33.0352 68.06C33.0352 66.424 34.504 65.6277 36.7217 65.6422V65.5553C36.7217 65.2223 36.5489 64.7446 35.5841 64.7446C34.9361 64.7446 34.2592 64.9617 33.856 65.2223L33.496 63.9628C33.928 63.7166 34.792 63.4126 35.9297 63.4126C38.0178 63.4126 38.6947 64.6577 38.6947 66.1344V68.335C38.6947 68.9431 38.7234 69.5222 38.7811 69.8697H37.0242V69.8552ZM36.7938 66.8728C35.7713 66.8583 34.9649 67.1044 34.9649 67.8717C34.9649 68.3785 35.2961 68.6246 35.7425 68.6246C36.2321 68.6246 36.6353 68.3061 36.7505 67.9007C36.7794 67.7994 36.7938 67.6835 36.7938 67.5677V66.8728Z" fill="#FFD500"/>
<path d="M43.2018 65.8159V67.1189H39.832V65.8159H43.2018Z" fill="#FFD500"/>
<path d="M46.3851 67.6256L45.7659 69.8552H43.7354L46.3851 61.1541H48.9628L51.6414 69.8552H49.5388L48.8764 67.6256H46.3851ZM48.5884 66.1489L48.0556 64.2957C47.8972 63.7745 47.7532 63.1375 47.6236 62.6163H47.5947C47.4651 63.1375 47.3355 63.789 47.1915 64.2957L46.6731 66.1489H48.5884Z" fill="#FFD500"/>
<path d="M52.6631 60.6908H54.6216V69.8552H52.6631V60.6908Z" fill="#FFD500"/>
<path d="M55.6875 68.726L57.6604 66.2358C58.0204 65.8159 58.3084 65.4974 58.6685 65.1065V65.0776H55.9035V63.5284H61.0446V64.7011L59.1581 67.09C58.8125 67.5098 58.4956 67.9007 58.1356 68.2482V68.2772H61.1598V69.8407H55.7019V68.726H55.6875Z" fill="#FFD500"/>
<path d="M65.7829 69.8552L65.6677 69.2182H65.6245C65.2069 69.7249 64.5733 70 63.8245 70C62.5572 70 61.7939 69.0734 61.7939 68.06C61.7939 66.424 63.2628 65.6277 65.4805 65.6422V65.5553C65.4805 65.2223 65.3077 64.7446 64.3429 64.7446C63.6948 64.7446 63.018 64.9617 62.6148 65.2223L62.2548 63.9628C62.6868 63.7166 63.5508 63.4126 64.6885 63.4126C66.7766 63.4126 67.4534 64.6577 67.4534 66.1344V68.335C67.4534 68.9431 67.4822 69.5222 67.5398 69.8697H65.7829V69.8552ZM65.5525 66.8728C64.5301 66.8583 63.7236 67.1044 63.7236 67.8717C63.7236 68.3785 64.0549 68.6246 64.5013 68.6246C64.9909 68.6246 65.3941 68.3061 65.5093 67.9007C65.5381 67.7994 65.5525 67.6835 65.5525 67.5677V66.8728Z" fill="#FFD500"/>
<path d="M68.9941 60.6908H70.9526V64.2958H70.9814C71.1831 64.0207 71.4423 63.818 71.7591 63.6443C72.0471 63.485 72.4071 63.3981 72.7671 63.3981C74.02 63.3981 74.9704 64.2668 74.9704 66.1634V69.8552H73.0119V66.3806C73.0119 65.5553 72.7239 64.9907 72.0039 64.9907C71.4855 64.9907 71.1687 65.3237 71.0246 65.6711C70.967 65.8014 70.967 65.9752 70.967 66.1055V69.8552H69.0085V60.6908H68.9941Z" fill="#FFD500"/>
<path d="M80.0974 69.8552L79.9822 69.2182H79.939C79.5214 69.7249 78.8877 70 78.1389 70C76.8716 70 76.1084 69.0734 76.1084 68.06C76.1084 66.424 77.5773 65.6277 79.795 65.6422V65.5553C79.795 65.2223 79.6222 64.7446 78.6573 64.7446C78.0093 64.7446 77.3325 64.9617 76.9292 65.2223L76.5692 63.9628C77.0012 63.7166 77.8653 63.4126 79.0029 63.4126C81.0911 63.4126 81.7679 64.6577 81.7679 66.1344V68.335C81.7679 68.9431 81.7967 69.5222 81.8543 69.8697H80.0974V69.8552ZM79.867 66.8728C78.8445 66.8583 78.0381 67.1044 78.0381 67.8717C78.0381 68.3785 78.3693 68.6246 78.8157 68.6246C79.3054 68.6246 79.7086 68.3061 79.8238 67.9007C79.8526 67.7994 79.867 67.6835 79.867 67.5677V66.8728Z" fill="#FFD500"/>
<path d="M83.251 69.8552C83.2798 69.4354 83.3086 68.6825 83.3086 67.9731V60.6908H85.2671V64.2958H85.2959C85.6703 63.7601 86.3183 63.3981 87.1968 63.3981C88.6945 63.3981 89.8033 64.6577 89.7889 66.5832C89.7889 68.8563 88.3488 70 86.9088 70C86.1743 70 85.4687 69.7249 85.0223 68.9866H84.9935L84.9215 69.8697H83.251V69.8552ZM85.2671 67.1624C85.2671 67.2927 85.2815 67.4085 85.3103 67.5098C85.4399 68.0455 85.8863 68.4364 86.4479 68.4364C87.2832 68.4364 87.8016 67.7849 87.8016 66.6556C87.8016 65.6711 87.3696 64.9038 86.4479 64.9038C85.9151 64.9038 85.4399 65.3092 85.3103 65.8738C85.2815 65.9897 85.2671 66.1055 85.2671 66.2358V67.1624Z" fill="#FFD500"/>
<path d="M93.0001 61.7767C93.0001 62.3124 92.5825 62.7612 91.9489 62.7612C91.3296 62.7612 90.9264 62.3268 90.9408 61.7767C90.9264 61.212 91.344 60.7777 91.9633 60.7777C92.5969 60.7922 93.0001 61.212 93.0001 61.7767ZM90.984 69.8553V63.543H92.9425V69.8553H90.984Z" fill="#FFD500"/>
</svg>
